<?xml version="1.0" encoding="utf-8"?>
<svg viewBox="130.708 158.676 26.255 27.396" xmlns="http://www.w3.org/2000/svg">
  <g transform="matrix(1, 0, 0, 1, 131.60684204101562, 158.02525329589844)">
    <path class="st0" d="M11.3,1c0.2,0,0.3,0.1,0.5,0.2C10.6,1.7,9.4,3,8.8,5.8L6.6,6.4C7.3,4.4,8.7,1,11.3,1z M12.4,2 c0.2,0.6,0.4,1.3,0.4,2.4c0,0.1,0,0.1,0,0.2L9.9,5.4C10.5,3.3,11.5,2.4,12.4,2z M15,3.8l-1.3,0.4c0-0.1,0-0.2,0-0.3 c0-0.9-0.1-1.6-0.3-2.2C14.1,1.9,14.7,2.8,15,3.8z M21.5,5.4c0-0.1-0.1-0.2-0.2-0.2C21.1,5.2,19,5,19,5s-1.5-1.5-1.7-1.6 c-0.2-0.2-0.5-0.1-0.6-0.1c0,0-0.3,0.1-0.8,0.3c-0.5-1.4-1.4-2.7-2.9-2.7c0,0-0.1,0-0.1,0c-0.4-0.6-1-0.8-1.5-0.8 C7.8,0,6.1,4.5,5.5,6.8C4.7,7,3.9,7.3,3,7.6c-0.8,0.2-0.8,0.3-0.9,1C2,9.1,0,24.9,0,24.9l15.9,3l8.6-1.9C24.5,26,21.5,5.6,21.5,5.4 z" style="fill: rgb(141, 184, 73);"/>
    <path class="st1" d="M21.2,5.2C21.1,5.2,19,5,19,5s-1.5-1.5-1.7-1.6c-0.1-0.1-0.1-0.1-0.2-0.1l-1.2,24.6l8.6-1.9c0,0-3-20.4-3-20.6 C21.5,5.3,21.3,5.2,21.2,5.2" style="fill: rgb(90, 134, 62);"/>
    <path class="st2" d="M13,10l-1.1,3.2c0,0-0.9-0.5-2.1-0.5c-1.7,0-1.8,1-1.8,1.3c0,1.4,3.8,2,3.8,5.4c0,2.7-1.7,4.4-4,4.4 c-2.7,0-4.1-1.7-4.1-1.7l0.7-2.4c0,0,1.4,1.2,2.6,1.2c0.8,0,1.1-0.6,1.1-1.1c0-1.9-3.1-2-3.1-5.1c0-2.6,1.9-5.1,5.6-5.1 C12.3,9.5,13,10,13,10" style=""/>
  </g>
</svg>