<svg version="1.2" xmlns="http://www.w3.org/2000/svg" viewBox="0 0 27 29" width="23" height="25">
	<title>shpop-svg</title>
	<style>
		.s0 { fill: #8db849 } 
		.s1 { fill: #5a863e } 
		.s2 { fill: #000000 } 
	</style>
	<g id="Layer">
		<path id="Layer" fill-rule="evenodd" class="s0" d="m26.1 26l-8.6 1.9-15.9-3c0 0 2-15.8 2.1-16.3 0.1-0.7 0.1-0.8 0.9-1 0.9-0.3 1.7-0.6 2.5-0.8 0.6-2.3 2.3-6.8 5.9-6.7 0.5 0 1.1 0.2 1.5 0.8h0.1c1.5 0 2.4 1.3 2.9 2.7 0.5-0.2 0.8-0.3 0.8-0.3 0.1 0 0.4-0.1 0.6 0.1 0.2 0.1 1.7 1.6 1.7 1.6 0 0 2.1 0.2 2.3 0.2 0.1 0 0.2 0.1 0.2 0.2 0 0.2 3 20.6 3 20.6zm-14.6-20.6l2.9-0.8c0-0.1 0-0.1 0-0.2 0-1.1-0.2-1.8-0.4-2.4-0.9 0.4-1.9 1.3-2.5 3.4zm3.5-3.7c0.2 0.6 0.3 1.3 0.3 2.2q0 0.2 0 0.3l1.3-0.4c-0.3-1-0.9-1.9-1.6-2.1zm-6.8 4.7l2.2-0.6c0.6-2.8 1.8-4.1 3-4.6-0.2-0.1-0.3-0.2-0.5-0.2-2.6 0-4 3.4-4.7 5.4z"/>
		<path id="Layer" class="s1" d="m22.8 5.2c-0.1 0-2.2-0.2-2.2-0.2 0 0-1.5-1.5-1.7-1.6-0.1-0.1-0.1-0.1-0.2-0.1l-1.2 24.6 8.6-1.9c0 0-3-20.4-3-20.6 0-0.1-0.2-0.2-0.3-0.2z"/>
		<path id="Layer" class="s2" d="m14.6 10l-1.1 3.2c0 0-0.9-0.5-2.1-0.5-1.7 0-1.8 1-1.8 1.3 0 1.4 3.8 2 3.8 5.4 0 2.7-1.7 4.4-4 4.4-2.7 0-4.1-1.7-4.1-1.7l0.7-2.4c0 0 1.4 1.2 2.6 1.2 0.8 0 1.1-0.6 1.1-1.1 0-1.9-3.1-2-3.1-5.1 0-2.6 1.9-5.1 5.6-5.1 1.7-0.1 2.4 0.4 2.4 0.4z"/>
	</g>
</svg>